<mxfile host="app.diagrams.net" modified="2023-04-23T10:16:50.338Z" agent="Mozilla/5.0 (Windows NT 10.0; Win64; x64) AppleWebKit/537.36 (KHTML, like Gecko) Chrome/112.0.0.0 Safari/537.36" etag="dAWoh4nIWbcqSamVUIiR" version="21.1.1" type="github">
  <diagram name="Page-1" id="HkT8hZfkq_Xh1eUJ4RXr">
    <mxGraphModel dx="1050" dy="619" grid="1" gridSize="10" guides="1" tooltips="1" connect="1" arrows="1" fold="1" page="1" pageScale="1" pageWidth="850" pageHeight="1100" math="0" shadow="0">
      <root>
        <mxCell id="0" />
        <mxCell id="1" parent="0" />
        <mxCell id="g1TjquuLu9jZIJgUhtTs-5" value="" style="edgeStyle=orthogonalEdgeStyle;rounded=0;orthogonalLoop=1;jettySize=auto;html=1;" edge="1" parent="1" source="g1TjquuLu9jZIJgUhtTs-1" target="g1TjquuLu9jZIJgUhtTs-4">
          <mxGeometry relative="1" as="geometry" />
        </mxCell>
        <mxCell id="g1TjquuLu9jZIJgUhtTs-1" value="&lt;font style=&quot;font-size: 20px;&quot;&gt;开始&lt;/font&gt;" style="rounded=0;whiteSpace=wrap;html=1;" vertex="1" parent="1">
          <mxGeometry x="330" y="140" width="120" height="60" as="geometry" />
        </mxCell>
        <mxCell id="g1TjquuLu9jZIJgUhtTs-7" value="" style="edgeStyle=orthogonalEdgeStyle;rounded=0;orthogonalLoop=1;jettySize=auto;html=1;entryX=0.5;entryY=0;entryDx=0;entryDy=0;" edge="1" parent="1" source="g1TjquuLu9jZIJgUhtTs-4" target="g1TjquuLu9jZIJgUhtTs-10">
          <mxGeometry relative="1" as="geometry">
            <mxPoint x="390" y="420" as="targetPoint" />
          </mxGeometry>
        </mxCell>
        <mxCell id="g1TjquuLu9jZIJgUhtTs-4" value="&lt;font style=&quot;font-size: 20px;&quot;&gt;输入N值&lt;/font&gt;" style="rounded=0;whiteSpace=wrap;html=1;" vertex="1" parent="1">
          <mxGeometry x="330" y="280" width="120" height="60" as="geometry" />
        </mxCell>
        <mxCell id="g1TjquuLu9jZIJgUhtTs-15" value="" style="edgeStyle=orthogonalEdgeStyle;rounded=0;orthogonalLoop=1;jettySize=auto;html=1;" edge="1" parent="1" source="g1TjquuLu9jZIJgUhtTs-10" target="g1TjquuLu9jZIJgUhtTs-14">
          <mxGeometry relative="1" as="geometry" />
        </mxCell>
        <mxCell id="g1TjquuLu9jZIJgUhtTs-10" value="&lt;font style=&quot;font-size: 20px;&quot;&gt;p = 2&lt;/font&gt;" style="rounded=0;whiteSpace=wrap;html=1;" vertex="1" parent="1">
          <mxGeometry x="330" y="430" width="120" height="60" as="geometry" />
        </mxCell>
        <mxCell id="g1TjquuLu9jZIJgUhtTs-17" value="" style="edgeStyle=orthogonalEdgeStyle;rounded=0;orthogonalLoop=1;jettySize=auto;html=1;entryX=0.5;entryY=0;entryDx=0;entryDy=0;" edge="1" parent="1" source="g1TjquuLu9jZIJgUhtTs-14" target="g1TjquuLu9jZIJgUhtTs-29">
          <mxGeometry relative="1" as="geometry">
            <mxPoint x="650" y="860" as="targetPoint" />
            <Array as="points">
              <mxPoint x="635" y="665" />
            </Array>
          </mxGeometry>
        </mxCell>
        <mxCell id="g1TjquuLu9jZIJgUhtTs-18" value="&lt;font style=&quot;font-size: 20px;&quot;&gt;True&lt;/font&gt;" style="edgeLabel;html=1;align=center;verticalAlign=middle;resizable=0;points=[];" vertex="1" connectable="0" parent="g1TjquuLu9jZIJgUhtTs-17">
          <mxGeometry x="-0.3533" y="1" relative="1" as="geometry">
            <mxPoint as="offset" />
          </mxGeometry>
        </mxCell>
        <mxCell id="g1TjquuLu9jZIJgUhtTs-26" style="edgeStyle=orthogonalEdgeStyle;rounded=0;orthogonalLoop=1;jettySize=auto;html=1;entryX=0.5;entryY=0;entryDx=0;entryDy=0;" edge="1" parent="1" source="g1TjquuLu9jZIJgUhtTs-14" target="g1TjquuLu9jZIJgUhtTs-19">
          <mxGeometry relative="1" as="geometry" />
        </mxCell>
        <mxCell id="g1TjquuLu9jZIJgUhtTs-27" value="&lt;font style=&quot;font-size: 20px;&quot;&gt;False&lt;/font&gt;" style="edgeLabel;html=1;align=center;verticalAlign=middle;resizable=0;points=[];" vertex="1" connectable="0" parent="g1TjquuLu9jZIJgUhtTs-26">
          <mxGeometry x="0.328" y="2" relative="1" as="geometry">
            <mxPoint as="offset" />
          </mxGeometry>
        </mxCell>
        <mxCell id="g1TjquuLu9jZIJgUhtTs-14" value="&lt;font style=&quot;font-size: 20px;&quot;&gt;is_prime(p) &amp;amp;&amp;amp; is_prime(N - p)&lt;/font&gt;" style="rhombus;whiteSpace=wrap;html=1;rounded=0;" vertex="1" parent="1">
          <mxGeometry x="290" y="580" width="200" height="170" as="geometry" />
        </mxCell>
        <mxCell id="g1TjquuLu9jZIJgUhtTs-28" style="edgeStyle=orthogonalEdgeStyle;rounded=0;orthogonalLoop=1;jettySize=auto;html=1;entryX=0;entryY=0.5;entryDx=0;entryDy=0;" edge="1" parent="1" source="g1TjquuLu9jZIJgUhtTs-19" target="g1TjquuLu9jZIJgUhtTs-14">
          <mxGeometry relative="1" as="geometry">
            <mxPoint x="100" y="790" as="targetPoint" />
            <Array as="points">
              <mxPoint x="240" y="950" />
              <mxPoint x="240" y="665" />
            </Array>
          </mxGeometry>
        </mxCell>
        <mxCell id="g1TjquuLu9jZIJgUhtTs-19" value="&lt;font style=&quot;font-size: 20px;&quot;&gt;p += 1&lt;/font&gt;" style="whiteSpace=wrap;html=1;rounded=0;" vertex="1" parent="1">
          <mxGeometry x="330" y="930" width="120" height="40" as="geometry" />
        </mxCell>
        <mxCell id="g1TjquuLu9jZIJgUhtTs-29" value="&lt;font style=&quot;font-size: 20px;&quot;&gt;N=p+(n-p)&lt;/font&gt;" style="ellipse;whiteSpace=wrap;html=1;aspect=fixed;" vertex="1" parent="1">
          <mxGeometry x="580" y="790" width="110" height="110" as="geometry" />
        </mxCell>
      </root>
    </mxGraphModel>
  </diagram>
</mxfile>
